<?xml version='1.0' encoding='utf-8'?>
<svg xmlns="http://www.w3.org/2000/svg" width="1100" height="154" viewBox="0 0 1100 154" role="img" aria-labelledby="title desc">
  <title id="title">Balanced v3 管线</title>
  <desc id="desc">原始 v3：保留全部原始样本 → 跨视频配对：同组 · 同 split → CLIP 文本排名：保留最低一半视频 → 语义过滤：去重 · 排除标注冲突 → 补齐与校验：追加伪负例至正负 1:1</desc>
  <rect width="1100" height="154" rx="12" fill="#FFFFFF" />
  <rect x="12" y="24" width="196" height="104" rx="12" fill="#EFF6FF" stroke="#BFDBFE" stroke-width="1.3" />
  <text x="110" y="67" fill="#0F172A" font-family="Noto Sans CJK SC, Microsoft YaHei, PingFang SC, Arial, sans-serif" font-size="22" font-weight="600" text-anchor="middle">原始 v3</text>
  <text x="110" y="101" fill="#475569" font-family="Noto Sans CJK SC, Microsoft YaHei, PingFang SC, Arial, sans-serif" font-size="17" font-weight="400" text-anchor="middle">保留全部原始样本</text>
  <path d="M 213 76 H 226 M 220 70 L 226 76 L 220 82" fill="none" stroke="#64748B" stroke-width="2" stroke-linecap="round" stroke-linejoin="round" />
  <rect x="232" y="24" width="196" height="104" rx="12" fill="#F0FDFA" stroke="#99D9D0" stroke-width="1.3" />
  <text x="330" y="67" fill="#0F172A" font-family="Noto Sans CJK SC, Microsoft YaHei, PingFang SC, Arial, sans-serif" font-size="22" font-weight="600" text-anchor="middle">跨视频配对</text>
  <text x="330" y="101" fill="#475569" font-family="Noto Sans CJK SC, Microsoft YaHei, PingFang SC, Arial, sans-serif" font-size="17" font-weight="400" text-anchor="middle">同组 · 同 split</text>
  <path d="M 433 76 H 446 M 440 70 L 446 76 L 440 82" fill="none" stroke="#64748B" stroke-width="2" stroke-linecap="round" stroke-linejoin="round" />
  <rect x="452" y="24" width="196" height="104" rx="12" fill="#F0FDFA" stroke="#99D9D0" stroke-width="1.3" />
  <text x="550" y="67" fill="#0F172A" font-family="Noto Sans CJK SC, Microsoft YaHei, PingFang SC, Arial, sans-serif" font-size="22" font-weight="600" text-anchor="middle">CLIP 文本排名</text>
  <text x="550" y="101" fill="#475569" font-family="Noto Sans CJK SC, Microsoft YaHei, PingFang SC, Arial, sans-serif" font-size="17" font-weight="400" text-anchor="middle">保留最低一半视频</text>
  <path d="M 653 76 H 666 M 660 70 L 666 76 L 660 82" fill="none" stroke="#64748B" stroke-width="2" stroke-linecap="round" stroke-linejoin="round" />
  <rect x="672" y="24" width="196" height="104" rx="12" fill="#F0FDFA" stroke="#99D9D0" stroke-width="1.3" />
  <text x="770" y="67" fill="#0F172A" font-family="Noto Sans CJK SC, Microsoft YaHei, PingFang SC, Arial, sans-serif" font-size="22" font-weight="600" text-anchor="middle">语义过滤</text>
  <text x="770" y="101" fill="#475569" font-family="Noto Sans CJK SC, Microsoft YaHei, PingFang SC, Arial, sans-serif" font-size="17" font-weight="400" text-anchor="middle">去重 · 排除标注冲突</text>
  <path d="M 873 76 H 886 M 880 70 L 886 76 L 880 82" fill="none" stroke="#64748B" stroke-width="2" stroke-linecap="round" stroke-linejoin="round" />
  <rect x="892" y="24" width="196" height="104" rx="12" fill="#FFFBEB" stroke="#F4D79D" stroke-width="1.3" />
  <text x="990" y="67" fill="#0F172A" font-family="Noto Sans CJK SC, Microsoft YaHei, PingFang SC, Arial, sans-serif" font-size="22" font-weight="600" text-anchor="middle">补齐与校验</text>
  <text x="990" y="101" fill="#475569" font-family="Noto Sans CJK SC, Microsoft YaHei, PingFang SC, Arial, sans-serif" font-size="17" font-weight="400" text-anchor="middle">追加伪负例至正负 1:1</text>
</svg>